<svg xmlns="http://www.w3.org/2000/svg" xmlns:xlink="http://www.w3.org/1999/xlink" width="200.629" height="80.095" viewBox="0 0 200.629 80.095"><defs><style>.a{isolation:isolate;}.b{clip-path:url(#a);}.c{stroke:#fff;stroke-width:3.304px;}.d,.e{stroke:#d8d8da;}.d{stroke-width:1.123px;}.e{stroke-linecap:round;stroke-width:2.138px;}</style><clipPath id="a"><path d="M0-112.815H200.629v-80.1H0Z" transform="translate(0 192.91)"/></clipPath></defs><g class="a" transform="translate(0 192.91)"><g class="b" transform="translate(0 -192.91)"><g transform="translate(0.686 2.08)"><path class="c" d="M-32.52-12.245a1.561,1.561,0,0,1-2.28.642,14.847,14.847,0,0,0-7.981-2.566,5.073,5.073,0,0,0-5.2,5.131v1.283a.713.713,0,0,0,.783.784h9.977A1.426,1.426,0,0,1-35.656-5.4v3.278A1.426,1.426,0,0,1-37.223-.559H-47.2a.713.713,0,0,0-.783.784v10.9A1.426,1.426,0,0,1-49.551,12.7h-4.49a1.426,1.426,0,0,1-1.567-1.568V-9.039c0-6.342,5.131-11.9,12.827-11.9a19.528,19.528,0,0,1,11.472,3.707,1.675,1.675,0,0,1,.428,2.28Z" transform="translate(55.608 20.939)"/></g><g transform="translate(79.429 2.08)"><path class="c" d="M-18.066-48.378c-7.7,0-12.826-5.557-12.826-11.9V-70.824c0-6.342,5.131-11.9,12.826-11.9,6.342,0,10.332,3.634,11.687,7.126a1.713,1.713,0,0,1-.428,2.137l-3.348,2.21a1.439,1.439,0,0,1-2.138-.356c-1.354-2.28-2.637-4.348-5.772-4.348a5.073,5.073,0,0,0-5.2,5.131v10.546a5.073,5.073,0,0,0,5.2,5.132c3.136,0,4.418-2.067,5.772-4.348a1.438,1.438,0,0,1,2.138-.356l3.348,2.208A1.716,1.716,0,0,1-6.38-55.5C-7.734-52.011-11.724-48.378-18.066-48.378Z" transform="translate(30.893 82.724)"/></g><g transform="translate(118.765 2.793)"><path class="c" d="M-33.925-9.033h-6.7a.714.714,0,0,0-.785.784V15.907a1.425,1.425,0,0,1-1.567,1.568h-4.418a1.426,1.426,0,0,1-1.568-1.568V-8.249a.713.713,0,0,0-.783-.784h-6.7A1.425,1.425,0,0,1-58.01-10.6v-3.278a1.426,1.426,0,0,1,1.567-1.567h22.518a1.426,1.426,0,0,1,1.567,1.567V-10.6A1.425,1.425,0,0,1-33.925-9.033Z" transform="translate(58.01 15.446)"/></g><path d="M104.759-155.272s-.243-4.207,4.814-2.2c1.405.557,5.99.231,5.99.231l1.024-.782s-.019-16.058-.1-16.716c-.184-1.522-.665-5.42-1.551-7.353-1.765-3.851-6.6-9.352-10.453-10.728l-.962-.089h-1.687l-.962.089c-3.851,1.376-8.688,6.877-10.453,10.728-.886,1.933-1.367,5.831-1.551,7.353-.08.657-.1,16.716-.1,16.716l1.024.782s4.585.326,5.99-.231c5.058-2.007,4.814,2.2,4.814,2.2" transform="translate(-51.912 192.909)"/><path d="M111.831-75.066l.434-.05.01.05a13.848,13.848,0,0,1,3.764,3.047,9.241,9.241,0,0,1,2.12,4.834c0,1.254-.027,1.992-.027,1.992s-5.543-.315-6.275-.315l-.016,0-.016,0c-.732,0-5.852.315-5.852.315s-.027-.738-.027-1.992a9.246,9.246,0,0,1,2.12-4.834,13.859,13.859,0,0,1,3.764-3.047M110.471-104.3l-.837,11.4.114,4.88-.323.554s-.1,8.023-.313,9.8-3.8,5.366-4.287,9.123a32.972,32.972,0,0,0,.523,7.423L111.67-61a.054.054,0,0,0,0,.006l.171,0,.171,0a.05.05,0,0,0,0-.006l6.745-.118a32.973,32.973,0,0,0,.523-7.423c-.487-3.757-4.078-7.346-4.287-9.123s-.313-9.8-.313-9.8l-.308-.554.1-4.88-.836-11.4" transform="translate(-61.256 141.088)"/><g transform="translate(48.802 53.262)"><path class="d" d="M-5.573,0H-9.53" transform="translate(9.53)"/></g><g transform="translate(47.8 22.547)"><path class="e" d="M0,0V10.937"/></g><g transform="translate(54.128 22.547)"><path class="e" d="M0-15.4V-26.341" transform="translate(0 26.341)"/></g><path d="M159.595-71.015a.484.484,0,0,1-.361-.156.509.509,0,0,1-.151-.366v-5.634a.508.508,0,0,1,.151-.365.486.486,0,0,1,.361-.155h3.018a.5.5,0,0,1,.366.155.5.5,0,0,1,.156.365.489.489,0,0,1-.156.362.507.507,0,0,1-.366.15h-2.176c-.048,0-.073.028-.073.082v1.6a.065.065,0,0,0,.073.073h2.021a.488.488,0,0,1,.348.142.473.473,0,0,1,.146.353.47.47,0,0,1-.146.351.485.485,0,0,1-.348.142h-2.021a.065.065,0,0,0-.073.073v2.3a.5.5,0,0,1-.156.366.5.5,0,0,1-.365.156Z" transform="translate(-93.033 125.529)"/><path d="M176.376-74.484q0-2.377-1.737-2.378T172.9-74.484q0,2.378,1.738,2.378t1.737-2.378m.489,2.524a2.854,2.854,0,0,1-2.227.9,2.854,2.854,0,0,1-2.227-.9,3.632,3.632,0,0,1-.818-2.524,3.633,3.633,0,0,1,.818-2.524,2.853,2.853,0,0,1,2.227-.905,2.852,2.852,0,0,1,2.227.905,3.633,3.633,0,0,1,.818,2.524,3.632,3.632,0,0,1-.818,2.524" transform="translate(-100.348 125.66)"/><path d="M193.578-74.484q0-2.377-1.737-2.378T190.1-74.484q0,2.378,1.737,2.378t1.737-2.378m.489,2.524a2.854,2.854,0,0,1-2.227.9,2.854,2.854,0,0,1-2.227-.9,3.632,3.632,0,0,1-.818-2.524,3.633,3.633,0,0,1,.818-2.524,2.852,2.852,0,0,1,2.227-.905,2.852,2.852,0,0,1,2.227.905,3.63,3.63,0,0,1,.818,2.524,3.629,3.629,0,0,1-.818,2.524" transform="translate(-110.409 125.66)"/><path d="M208.04-76.76v4.553a.08.08,0,0,0,.073.082,3.492,3.492,0,0,0,.549.047,1.97,1.97,0,0,0,1.573-.582,2.909,2.909,0,0,0,.5-1.915,2.537,2.537,0,0,0-.513-1.756,2.022,2.022,0,0,0-1.563-.558,3.565,3.565,0,0,0-.549.046.082.082,0,0,0-.073.083m-.75,5.643a.575.575,0,0,1-.375-.2.59.59,0,0,1-.146-.4v-5.542a.587.587,0,0,1,.146-.4.567.567,0,0,1,.375-.2,12.094,12.094,0,0,1,1.309-.064,3.408,3.408,0,0,1,2.492.851,3.34,3.34,0,0,1,.864,2.487,3.631,3.631,0,0,1-.864,2.639,3.334,3.334,0,0,1-2.492.882,12.462,12.462,0,0,1-1.309-.063" transform="translate(-120.92 125.659)"/><path d="M232.359-76.558l-.8,2.872a.06.06,0,0,0,.009.054.054.054,0,0,0,.046.028h1.518a.053.053,0,0,0,.046-.028.06.06,0,0,0,.01-.054l-.8-2.872a.008.008,0,0,0-.009-.01.008.008,0,0,0-.01.01m-2.369,5.542a.351.351,0,0,1-.3-.155.353.353,0,0,1-.046-.339l1.893-5.688a.768.768,0,0,1,.27-.358.686.686,0,0,1,.416-.137h.329a.7.7,0,0,1,.425.137.713.713,0,0,1,.261.358l1.893,5.688a.355.355,0,0,1-.046.339.349.349,0,0,1-.3.155h-.33a.66.66,0,0,1-.407-.142.671.671,0,0,1-.251-.361l-.293-1.033c-.006-.05-.04-.074-.1-.074h-2.067a.092.092,0,0,0-.1.074l-.292,1.033a.63.63,0,0,1-.243.361.67.67,0,0,1-.416.142Z" transform="translate(-134.283 125.53)"/><path d="M247.836-71.055a3.2,3.2,0,0,1-2.382-.919,3.409,3.409,0,0,1-.91-2.51,3.418,3.418,0,0,1,.905-2.52,3.379,3.379,0,0,1,2.506-.91,7.17,7.17,0,0,1,1.2.092.581.581,0,0,1,.366.214.625.625,0,0,1,.147.407v.037a.372.372,0,0,1-.156.311.394.394,0,0,1-.347.073,5,5,0,0,0-1.07-.119,2.194,2.194,0,0,0-1.679.608,2.55,2.55,0,0,0-.572,1.806,2.581,2.581,0,0,0,.563,1.788,1.941,1.941,0,0,0,1.523.627,2.809,2.809,0,0,0,.777-.11.093.093,0,0,0,.073-.1v-1.81c0-.055-.025-.082-.073-.082h-1.143a.464.464,0,0,1-.343-.142.468.468,0,0,1-.142-.343.478.478,0,0,1,.142-.352.466.466,0,0,1,.343-.141h1.92a.5.5,0,0,1,.366.155.5.5,0,0,1,.156.366v2.66a.726.726,0,0,1-.137.431.648.648,0,0,1-.357.256,5.889,5.889,0,0,1-1.673.228" transform="translate(-143.011 125.66)"/><path d="M263.671-76.779V-74.8c0,.049.028.073.082.073h.457q1.629,0,1.628-1.161,0-1.034-1.508-1.033a3.841,3.841,0,0,0-.576.046.09.09,0,0,0-.082.091m-.741,5.634a.5.5,0,0,1-.366-.155.5.5,0,0,1-.155-.366v-5.587a.593.593,0,0,1,.146-.394.523.523,0,0,1,.366-.193c.518-.048,1.018-.073,1.5-.073a3.348,3.348,0,0,1,2.011.5,1.651,1.651,0,0,1,.667,1.4,1.915,1.915,0,0,1-.352,1.143,1.861,1.861,0,0,1-.946.7c-.006,0-.009,0-.009.01s0,.018.009.018a2.13,2.13,0,0,1,.75,1.079l.548,1.435a.347.347,0,0,1-.041.33.331.331,0,0,1-.288.155h-.284a.738.738,0,0,1-.43-.132.725.725,0,0,1-.275-.353l-.513-1.408a1.163,1.163,0,0,0-.375-.576,1.4,1.4,0,0,0-.723-.137h-.421a.073.073,0,0,0-.082.082v2a.51.51,0,0,1-.151.366.486.486,0,0,1-.361.155Z" transform="translate(-153.458 125.659)"/><path d="M280.846-74.484q0-2.377-1.737-2.378t-1.737,2.378q0,2.378,1.737,2.378t1.737-2.378m.49,2.524a2.855,2.855,0,0,1-2.228.9,2.853,2.853,0,0,1-2.227-.9,3.629,3.629,0,0,1-.818-2.524,3.63,3.63,0,0,1,.818-2.524,2.851,2.851,0,0,1,2.227-.905,2.854,2.854,0,0,1,2.228.905,3.634,3.634,0,0,1,.818,2.524,3.633,3.633,0,0,1-.818,2.524" transform="translate(-161.444 125.66)"/><path d="M295.387-74.109v1.921a.09.09,0,0,0,.082.091,4.274,4.274,0,0,0,.6.046,1.788,1.788,0,0,0,1.111-.279,1.024,1.024,0,0,0,.351-.856.815.815,0,0,0-.406-.754,2.782,2.782,0,0,0-1.349-.243h-.32a.065.065,0,0,0-.073.073m0-2.671v1.564c0,.055.025.082.073.082h.266a2.442,2.442,0,0,0,1.23-.233.757.757,0,0,0,.379-.69.728.728,0,0,0-.311-.649,1.868,1.868,0,0,0-1.015-.21,3.444,3.444,0,0,0-.549.037.091.091,0,0,0-.073.1m-.75,5.652a.528.528,0,0,1-.366-.187.592.592,0,0,1-.146-.4v-5.542a.592.592,0,0,1,.146-.4.535.535,0,0,1,.375-.188,12.31,12.31,0,0,1,1.308-.073q2.561,0,2.561,1.673a1.4,1.4,0,0,1-.375.971,1.748,1.748,0,0,1-.988.53c-.007,0-.01,0-.01.009s0,.018.01.018a1.966,1.966,0,0,1,1.175.554,1.519,1.519,0,0,1,.426,1.093,1.779,1.779,0,0,1-.659,1.509,3.372,3.372,0,0,1-2.048.5,13.775,13.775,0,0,1-1.409-.073" transform="translate(-172.006 125.66)"/><path d="M310.065-71.015a.5.5,0,0,1-.366-.156.5.5,0,0,1-.156-.366v-5.634a.5.5,0,0,1,.156-.365.5.5,0,0,1,.366-.155h.366a.5.5,0,0,1,.366.155.5.5,0,0,1,.156.365v5.634a.5.5,0,0,1-.156.366.5.5,0,0,1-.366.156Z" transform="translate(-181.023 125.529)"/><path d="M321.551-74.484q0-2.377-1.738-2.378t-1.737,2.378q0,2.378,1.737,2.378t1.738-2.378m.489,2.524a2.854,2.854,0,0,1-2.227.9,2.855,2.855,0,0,1-2.227-.9,3.629,3.629,0,0,1-.818-2.524,3.63,3.63,0,0,1,.818-2.524,2.853,2.853,0,0,1,2.227-.905,2.852,2.852,0,0,1,2.227.905,3.633,3.633,0,0,1,.818,2.524,3.632,3.632,0,0,1-.818,2.524" transform="translate(-185.248 125.66)"/><path d="M336.1-76.76v4.553a.08.08,0,0,0,.073.082,3.492,3.492,0,0,0,.549.047,1.969,1.969,0,0,0,1.573-.582,2.909,2.909,0,0,0,.5-1.915,2.54,2.54,0,0,0-.512-1.756,2.023,2.023,0,0,0-1.564-.558,3.565,3.565,0,0,0-.549.046.082.082,0,0,0-.073.083m-.75,5.643a.573.573,0,0,1-.374-.2.587.587,0,0,1-.147-.4v-5.542a.584.584,0,0,1,.147-.4.565.565,0,0,1,.374-.2,12.094,12.094,0,0,1,1.308-.064,3.407,3.407,0,0,1,2.492.851,3.337,3.337,0,0,1,.865,2.487,3.628,3.628,0,0,1-.865,2.639,3.333,3.333,0,0,1-2.492.882,12.463,12.463,0,0,1-1.308-.063" transform="translate(-195.811 125.659)"/><path d="M351.673-71.015a.5.5,0,0,1-.366-.156.5.5,0,0,1-.156-.366v-5.634a.5.5,0,0,1,.156-.365.5.5,0,0,1,.366-.155h.366a.5.5,0,0,1,.366.155.5.5,0,0,1,.156.365v5.634a.5.5,0,0,1-.156.366.5.5,0,0,1-.366.156Z" transform="translate(-205.356 125.529)"/><path d="M360.655-71.51,358.762-77.2a.352.352,0,0,1,.045-.339.351.351,0,0,1,.3-.156h.329a.694.694,0,0,1,.421.142.62.62,0,0,1,.247.361l1.4,4.911a.008.008,0,0,0,.009.009c.006,0,.01,0,.01-.009l1.417-4.92a.662.662,0,0,1,.252-.358.691.691,0,0,1,.417-.137h.292a.35.35,0,0,1,.3.156.354.354,0,0,1,.046.339l-1.893,5.688a.705.705,0,0,1-.26.356.7.7,0,0,1-.425.138h-.329a.688.688,0,0,1-.417-.138.76.76,0,0,1-.27-.356" transform="translate(-209.792 125.53)"/><path d="M376.055-71.015a.5.5,0,0,1-.366-.156.5.5,0,0,1-.156-.366v-5.634a.5.5,0,0,1,.156-.365.5.5,0,0,1,.366-.155h3.109a.5.5,0,0,1,.366.155.5.5,0,0,1,.156.365.486.486,0,0,1-.156.362.509.509,0,0,1-.366.15H376.9a.073.073,0,0,0-.082.082V-75.1a.073.073,0,0,0,.082.082h2.113a.474.474,0,0,1,.352.146.484.484,0,0,1,.141.348.467.467,0,0,1-.141.343.476.476,0,0,1-.352.142H376.9a.073.073,0,0,0-.082.082v1.828a.073.073,0,0,0,.082.082h2.268a.51.51,0,0,1,.366.152.482.482,0,0,1,.156.36.5.5,0,0,1-.156.366.5.5,0,0,1-.366.156Z" transform="translate(-219.615 125.529)"/><path d="M391.4-76.779V-74.8c0,.049.028.073.082.073h.457q1.629,0,1.628-1.161,0-1.034-1.508-1.033a3.849,3.849,0,0,0-.577.046.09.09,0,0,0-.082.091m-.741,5.634a.5.5,0,0,1-.366-.155.5.5,0,0,1-.155-.366v-5.587a.6.6,0,0,1,.146-.394.524.524,0,0,1,.366-.193c.518-.048,1.019-.073,1.5-.073a3.346,3.346,0,0,1,2.011.5,1.65,1.65,0,0,1,.668,1.4,1.92,1.92,0,0,1-.352,1.143,1.867,1.867,0,0,1-.946.7c-.007,0-.009,0-.009.01s0,.018.009.018a2.133,2.133,0,0,1,.749,1.079l.549,1.435a.345.345,0,0,1-.042.33.33.33,0,0,1-.288.155h-.283a.738.738,0,0,1-.43-.132.733.733,0,0,1-.275-.353L393-73.039a1.163,1.163,0,0,0-.375-.576,1.4,1.4,0,0,0-.722-.137h-.421a.073.073,0,0,0-.082.082v2a.508.508,0,0,1-.151.366.485.485,0,0,1-.361.155Z" transform="translate(-228.156 125.659)"/><path d="M406.751-73.962a3.806,3.806,0,0,1-1.586-.887,1.775,1.775,0,0,1-.489-1.262,1.657,1.657,0,0,1,.558-1.317,2.31,2.31,0,0,1,1.563-.485,5.122,5.122,0,0,1,1.482.192.632.632,0,0,1,.353.261.766.766,0,0,1,.132.434v.082a.3.3,0,0,1-.156.271.344.344,0,0,1-.319.032,3.856,3.856,0,0,0-1.4-.266,1.013,1.013,0,0,0-.695.211.738.738,0,0,0-.238.585q0,.658.86.941a4.157,4.157,0,0,1,1.714.9,1.8,1.8,0,0,1,.48,1.3q0,1.922-2.368,1.92a3.758,3.758,0,0,1-1.345-.228.666.666,0,0,1-.343-.283.837.837,0,0,1-.123-.448v-.11a.263.263,0,0,1,.147-.251.319.319,0,0,1,.3,0,2.809,2.809,0,0,0,1.271.3q1.161,0,1.162-.879a.827.827,0,0,0-.22-.589,1.886,1.886,0,0,0-.741-.416" transform="translate(-236.656 125.659)"/><path d="M420.351-71.015a.5.5,0,0,1-.366-.156.5.5,0,0,1-.156-.366v-5.634a.5.5,0,0,1,.156-.365.5.5,0,0,1,.366-.155h.366a.5.5,0,0,1,.366.155.5.5,0,0,1,.156.365v5.634a.5.5,0,0,1-.156.366.5.5,0,0,1-.366.156Z" transform="translate(-245.519 125.529)"/><path d="M428.236-76.631a.51.51,0,0,1-.366-.151.488.488,0,0,1-.156-.362v-.028a.5.5,0,0,1,.156-.365.5.5,0,0,1,.366-.156h3.9a.505.505,0,0,1,.366.156.5.5,0,0,1,.155.365v.028a.488.488,0,0,1-.155.362.514.514,0,0,1-.366.151h-1.226c-.049,0-.073.027-.073.082v5.011a.5.5,0,0,1-.155.366.5.5,0,0,1-.366.156h-.256a.5.5,0,0,1-.366-.156.5.5,0,0,1-.156-.366v-5.011c0-.056-.024-.082-.072-.082Z" transform="translate(-250.13 125.53)"/><path d="M444.81-73.732l-1.93-3.5a.285.285,0,0,1,.01-.3.29.29,0,0,1,.264-.155h.44a.8.8,0,0,1,.438.127.816.816,0,0,1,.3.339l1.189,2.516a.007.007,0,0,0,.008.008c.006,0,.009,0,.009-.008l1.189-2.516a.811.811,0,0,1,.3-.339.8.8,0,0,1,.438-.127h.4a.29.29,0,0,1,.265.155.285.285,0,0,1,.01.3l-1.93,3.5a.278.278,0,0,0-.045.147v2.048a.508.508,0,0,1-.152.366.485.485,0,0,1-.361.155h-.293a.486.486,0,0,1-.361-.155.513.513,0,0,1-.151-.366v-2.048a.273.273,0,0,0-.046-.147" transform="translate(-258.976 125.529)"/><path d="M175.5-40.217a3,3,0,0,1-2.291-.892,3.544,3.544,0,0,1-.846-2.538,3.625,3.625,0,0,1,.818-2.529,2.942,2.942,0,0,1,2.291-.9,6.456,6.456,0,0,1,1.134.084.577.577,0,0,1,.366.219.645.645,0,0,1,.146.411v.073a.35.35,0,0,1-.16.3.408.408,0,0,1-.343.063,3.955,3.955,0,0,0-1.006-.118,1.749,1.749,0,0,0-1.423.622,2.7,2.7,0,0,0-.517,1.773,2.648,2.648,0,0,0,.535,1.771,1.788,1.788,0,0,0,1.432.625,4.183,4.183,0,0,0,1.033-.11.41.41,0,0,1,.343.065.349.349,0,0,1,.16.3v.065a.632.632,0,0,1-.142.406.567.567,0,0,1-.37.215,6.724,6.724,0,0,1-1.161.092" transform="translate(-100.799 107.626)"/><path d="M188.367-40.179a.485.485,0,0,1-.362-.156.508.508,0,0,1-.151-.366v-5.634A.509.509,0,0,1,188-46.7a.487.487,0,0,1,.362-.155h.292a.5.5,0,0,1,.366.155.5.5,0,0,1,.156.365v5.012c0,.054.024.082.073.082h2.35a.493.493,0,0,1,.361.151.5.5,0,0,1,.151.362v.027a.508.508,0,0,1-.151.366.484.484,0,0,1-.361.156Z" transform="translate(-109.858 107.496)"/><path d="M202.613-45.72l-.8,2.871a.059.059,0,0,0,.009.054.052.052,0,0,0,.046.028h1.518a.052.052,0,0,0,.046-.028.061.061,0,0,0,.009-.054l-.8-2.871c0-.007,0-.01-.009-.01s-.01,0-.01.01m-2.368,5.541a.351.351,0,0,1-.3-.155.354.354,0,0,1-.046-.339l1.894-5.688a.762.762,0,0,1,.269-.358.69.69,0,0,1,.416-.137h.33a.705.705,0,0,1,.426.137.716.716,0,0,1,.26.358l1.893,5.688a.354.354,0,0,1-.046.339.35.35,0,0,1-.3.155h-.33a.656.656,0,0,1-.406-.142.673.673,0,0,1-.251-.36l-.293-1.033c-.006-.05-.039-.073-.1-.073H201.59a.092.092,0,0,0-.1.073l-.292,1.033a.63.63,0,0,1-.243.36.67.67,0,0,1-.416.142Z" transform="translate(-116.887 107.496)"/><path d="M217.911-45.942v1.985c0,.049.028.073.082.073h.457q1.629,0,1.629-1.161,0-1.034-1.509-1.033a3.84,3.84,0,0,0-.576.046.091.091,0,0,0-.082.091m-.741,5.634a.5.5,0,0,1-.366-.155.5.5,0,0,1-.155-.366v-5.587a.594.594,0,0,1,.146-.394.521.521,0,0,1,.366-.192q.777-.072,1.5-.073a3.353,3.353,0,0,1,2.011.5,1.652,1.652,0,0,1,.667,1.4,1.918,1.918,0,0,1-.351,1.143,1.873,1.873,0,0,1-.947.7c-.007,0-.009,0-.009.009s0,.018.009.018a2.136,2.136,0,0,1,.75,1.08l.548,1.435a.345.345,0,0,1-.041.33.33.33,0,0,1-.288.155h-.283a.741.741,0,0,1-.43-.132.733.733,0,0,1-.274-.353l-.513-1.408a1.166,1.166,0,0,0-.374-.576,1.4,1.4,0,0,0-.723-.137h-.421a.073.073,0,0,0-.082.082v2a.509.509,0,0,1-.151.366.486.486,0,0,1-.361.155Z" transform="translate(-126.698 107.626)"/><path d="M232.9-40.179a.5.5,0,0,1-.366-.156.5.5,0,0,1-.156-.366v-5.634a.5.5,0,0,1,.156-.365.5.5,0,0,1,.366-.155h.366a.5.5,0,0,1,.366.155.5.5,0,0,1,.156.365V-40.7a.5.5,0,0,1-.156.366.5.5,0,0,1-.366.156Z" transform="translate(-135.894 107.496)"/><path d="M240.76-45.794a.506.506,0,0,1-.366-.151.488.488,0,0,1-.156-.362v-.028a.5.5,0,0,1,.156-.365.5.5,0,0,1,.366-.156h3.9a.5.5,0,0,1,.366.156.5.5,0,0,1,.156.365v.028a.488.488,0,0,1-.156.362.507.507,0,0,1-.366.151H243.43c-.049,0-.073.027-.073.082V-40.7a.5.5,0,0,1-.156.366.5.5,0,0,1-.366.156h-.256a.5.5,0,0,1-.366-.156.5.5,0,0,1-.156-.366v-5.012c0-.055-.024-.082-.073-.082Z" transform="translate(-140.493 107.496)"/><path d="M257.312-42.894l-1.93-3.5a.285.285,0,0,1,.009-.3.292.292,0,0,1,.266-.155h.438a.808.808,0,0,1,.439.127.818.818,0,0,1,.3.339l1.189,2.516a.008.008,0,0,0,.009.009c.007,0,.01,0,.01-.009l1.189-2.516a.814.814,0,0,1,.3-.339.81.81,0,0,1,.439-.127h.4a.29.29,0,0,1,.265.155.286.286,0,0,1,.01.3l-1.93,3.5a.275.275,0,0,0-.046.146V-40.7a.509.509,0,0,1-.151.366.485.485,0,0,1-.361.155h-.292a.487.487,0,0,1-.362-.155.511.511,0,0,1-.151-.366v-2.049a.269.269,0,0,0-.046-.146" transform="translate(-149.326 107.496)"/><path d="M281.1-46.152a1,1,0,0,0-.627.173.551.551,0,0,0-.224.457.892.892,0,0,0,.11.444,3.758,3.758,0,0,0,.53.626c.037.049.076.055.119.018a3.88,3.88,0,0,0,.75-.59.712.712,0,0,0,.183-.47q0-.66-.841-.659m-.421,3.091c-.561.39-.841.748-.841,1.079q0,.786,1.1.786a2.769,2.769,0,0,0,1.316-.329c.044-.025.047-.054.01-.091L280.8-43.052a.1.1,0,0,0-.119-.009m.192,2.843q-2.332,0-2.332-1.673a1.543,1.543,0,0,1,.32-.909,4.383,4.383,0,0,1,1.089-.965c.042-.037.046-.073.009-.109a4.024,4.024,0,0,1-.731-.883,1.6,1.6,0,0,1-.211-.791,1.329,1.329,0,0,1,.549-1.107,2.449,2.449,0,0,1,1.519-.421,2.5,2.5,0,0,1,1.536.4,1.316,1.316,0,0,1,.521,1.11,1.506,1.506,0,0,1-.32.915,4.285,4.285,0,0,1-1.088.933c-.018.006-.027.021-.027.046a.072.072,0,0,0,.018.055l1.042,1.042c.006.012.018.014.033.005a.041.041,0,0,0,.022-.033v-.86a.483.483,0,0,1,.156-.361.505.505,0,0,1,.366-.151h.137a.5.5,0,0,1,.366.151.486.486,0,0,1,.156.361v2.04a.186.186,0,0,0,.055.137l.612.613a.2.2,0,0,1,.046.233.2.2,0,0,1-.2.133h-.394a1.246,1.246,0,0,1-.886-.366l-.037-.037a.112.112,0,0,0-.137-.017,5.272,5.272,0,0,1-2.186.511" transform="translate(-162.893 107.626)"/><path d="M304.041-45.794a.508.508,0,0,1-.366-.151.488.488,0,0,1-.156-.362v-.028a.5.5,0,0,1,.156-.365.5.5,0,0,1,.366-.156h3.9a.5.5,0,0,1,.366.156.5.5,0,0,1,.155.365v.028a.488.488,0,0,1-.155.362.51.51,0,0,1-.366.151h-1.226c-.049,0-.073.027-.073.082V-40.7a.5.5,0,0,1-.155.366.5.5,0,0,1-.366.156h-.256a.5.5,0,0,1-.366-.156.5.5,0,0,1-.156-.366v-5.012c0-.055-.024-.082-.072-.082Z" transform="translate(-177.5 107.496)"/><path d="M320.708-45.942v1.985c0,.049.028.073.082.073h.457q1.628,0,1.628-1.161,0-1.034-1.508-1.033a3.842,3.842,0,0,0-.577.046.091.091,0,0,0-.082.091m-.741,5.634a.5.5,0,0,1-.366-.155.5.5,0,0,1-.155-.366v-5.587a.594.594,0,0,1,.146-.394.522.522,0,0,1,.366-.192c.518-.048,1.019-.073,1.5-.073a3.352,3.352,0,0,1,2.011.5,1.651,1.651,0,0,1,.668,1.4,1.918,1.918,0,0,1-.352,1.143,1.872,1.872,0,0,1-.946.7c-.007,0-.01,0-.01.009s0,.018.01.018a2.135,2.135,0,0,1,.749,1.08l.549,1.435a.346.346,0,0,1-.041.33.33.33,0,0,1-.288.155h-.283a.738.738,0,0,1-.43-.132.735.735,0,0,1-.275-.353l-.513-1.408a1.166,1.166,0,0,0-.375-.576,1.4,1.4,0,0,0-.723-.137h-.421a.073.073,0,0,0-.082.082v2a.507.507,0,0,1-.151.366.485.485,0,0,1-.361.155Z" transform="translate(-186.814 107.626)"/><path d="M336.18-45.72l-.8,2.871a.059.059,0,0,0,.009.054.052.052,0,0,0,.045.028h1.519a.051.051,0,0,0,.045-.028.06.06,0,0,0,.01-.054L336.2-45.72c0-.007,0-.01-.008-.01s-.01,0-.01.01m-2.368,5.541a.351.351,0,0,1-.3-.155.354.354,0,0,1-.046-.339l1.893-5.688a.768.768,0,0,1,.27-.358.69.69,0,0,1,.416-.137h.329a.7.7,0,0,1,.426.137.708.708,0,0,1,.26.358l1.894,5.688a.353.353,0,0,1-.046.339.349.349,0,0,1-.3.155h-.329a.658.658,0,0,1-.407-.142.68.68,0,0,1-.251-.36l-.292-1.033c-.006-.05-.04-.073-.1-.073h-2.067a.092.092,0,0,0-.1.073l-.292,1.033a.634.634,0,0,1-.243.36.671.671,0,0,1-.417.142Z" transform="translate(-194.998 107.496)"/><path d="M350.728-40.179a.483.483,0,0,1-.361-.156.506.506,0,0,1-.152-.366v-5.634a.507.507,0,0,1,.152-.365.485.485,0,0,1,.361-.155h.2a.815.815,0,0,1,.769.457l2.259,4.079c0,.005,0,.008.01.008a.007.007,0,0,0,.008-.008v-4.016a.5.5,0,0,1,.156-.365.5.5,0,0,1,.366-.155h.2a.485.485,0,0,1,.361.155.507.507,0,0,1,.152.365V-40.7a.505.505,0,0,1-.152.366.483.483,0,0,1-.361.156h-.2a.818.818,0,0,1-.769-.457l-2.258-4.078a.008.008,0,0,0-.01-.01c-.007,0-.01,0-.01.01V-40.7a.5.5,0,0,1-.155.366.5.5,0,0,1-.366.156Z" transform="translate(-204.808 107.496)"/><path d="M368.569-43.125a3.821,3.821,0,0,1-1.586-.887,1.776,1.776,0,0,1-.489-1.262,1.657,1.657,0,0,1,.558-1.318,2.308,2.308,0,0,1,1.563-.485,5.1,5.1,0,0,1,1.482.192.625.625,0,0,1,.353.261.762.762,0,0,1,.132.434v.082a.3.3,0,0,1-.156.27.342.342,0,0,1-.319.032,3.855,3.855,0,0,0-1.4-.265,1.016,1.016,0,0,0-.695.21.74.74,0,0,0-.238.586q0,.657.86.941a4.149,4.149,0,0,1,1.714.9,1.8,1.8,0,0,1,.48,1.3q0,1.921-2.368,1.92a3.758,3.758,0,0,1-1.344-.229.668.668,0,0,1-.343-.283.84.84,0,0,1-.123-.449v-.109a.262.262,0,0,1,.147-.251.319.319,0,0,1,.3,0,2.807,2.807,0,0,0,1.271.3q1.161,0,1.162-.879a.827.827,0,0,0-.22-.589,1.878,1.878,0,0,0-.741-.416" transform="translate(-214.328 107.625)"/><path d="M382.447-45.942v2.2a.081.081,0,0,0,.073.082,5.293,5.293,0,0,0,.677.046,1.728,1.728,0,0,0,1.13-.324,1.144,1.144,0,0,0,.388-.929q0-1.214-1.518-1.215a5.172,5.172,0,0,0-.677.046.087.087,0,0,0-.073.091m-.75,5.634a.486.486,0,0,1-.361-.155.509.509,0,0,1-.151-.366v-5.587a.6.6,0,0,1,.146-.394A.523.523,0,0,1,381.7-47q.777-.072,1.5-.073a3.273,3.273,0,0,1,2.058.545,1.893,1.893,0,0,1,.687,1.577,2.186,2.186,0,0,1-.663,1.729,2.885,2.885,0,0,1-1.962.585c-.2,0-.466-.012-.8-.036a.064.064,0,0,0-.073.073v1.774a.5.5,0,0,1-.156.366.5.5,0,0,1-.366.155Z" transform="translate(-222.92 107.626)"/><path d="M396.468-45.72l-.8,2.871a.059.059,0,0,0,.009.054.052.052,0,0,0,.045.028h1.519a.051.051,0,0,0,.045-.028.06.06,0,0,0,.009-.054l-.805-2.871c0-.007,0-.01-.008-.01s-.01,0-.01.01M394.1-40.179a.351.351,0,0,1-.3-.155.355.355,0,0,1-.046-.339l1.893-5.688a.768.768,0,0,1,.27-.358.69.69,0,0,1,.416-.137h.329a.7.7,0,0,1,.425.137.708.708,0,0,1,.26.358l1.894,5.688a.353.353,0,0,1-.046.339.349.349,0,0,1-.3.155h-.329a.658.658,0,0,1-.407-.142.68.68,0,0,1-.252-.36l-.292-1.033c-.006-.05-.04-.073-.1-.073h-2.067a.091.091,0,0,0-.1.073l-.292,1.033a.633.633,0,0,1-.243.36.671.671,0,0,1-.417.142Z" transform="translate(-230.255 107.496)"/><path d="M411.764-45.942v1.985c0,.049.027.073.082.073h.457q1.629,0,1.628-1.161,0-1.034-1.508-1.033a3.849,3.849,0,0,0-.577.046.09.09,0,0,0-.082.091m-.742,5.634a.5.5,0,0,1-.365-.155.5.5,0,0,1-.156-.366v-5.587a.6.6,0,0,1,.146-.394.524.524,0,0,1,.366-.192q.777-.072,1.5-.073a3.35,3.35,0,0,1,2.011.5,1.651,1.651,0,0,1,.668,1.4,1.918,1.918,0,0,1-.352,1.143,1.872,1.872,0,0,1-.946.7c-.007,0-.009,0-.009.009s0,.018.009.018a2.135,2.135,0,0,1,.749,1.08l.549,1.435a.344.344,0,0,1-.041.33.329.329,0,0,1-.288.155h-.283a.738.738,0,0,1-.43-.132.735.735,0,0,1-.275-.353l-.512-1.408a1.166,1.166,0,0,0-.375-.576,1.4,1.4,0,0,0-.722-.137h-.421a.072.072,0,0,0-.082.082v2a.507.507,0,0,1-.152.366.485.485,0,0,1-.361.155Z" transform="translate(-240.064 107.626)"/><path d="M426.309-40.179a.5.5,0,0,1-.366-.156.5.5,0,0,1-.156-.366v-5.634a.5.5,0,0,1,.156-.365.5.5,0,0,1,.366-.155h3.109a.5.5,0,0,1,.366.155.5.5,0,0,1,.156.365.486.486,0,0,1-.156.362.51.51,0,0,1-.366.151H427.15a.072.072,0,0,0-.082.082v1.473a.073.073,0,0,0,.082.082h2.113a.472.472,0,0,1,.352.147.482.482,0,0,1,.141.347.469.469,0,0,1-.141.343.479.479,0,0,1-.352.142H427.15a.072.072,0,0,0-.082.082v1.829a.073.073,0,0,0,.082.082h2.268a.51.51,0,0,1,.366.151.483.483,0,0,1,.156.361.5.5,0,0,1-.156.366.5.5,0,0,1-.366.156Z" transform="translate(-249.003 107.496)"/><path d="M440.883-40.179a.483.483,0,0,1-.361-.156.507.507,0,0,1-.151-.366v-5.634a.509.509,0,0,1,.151-.365.485.485,0,0,1,.361-.155h.2a.816.816,0,0,1,.769.457l2.258,4.079c0,.005,0,.008.01.008a.008.008,0,0,0,.008-.008v-4.016a.5.5,0,0,1,.156-.365.5.5,0,0,1,.366-.155h.2a.487.487,0,0,1,.362.155.509.509,0,0,1,.151.365V-40.7a.508.508,0,0,1-.151.366.485.485,0,0,1-.362.156h-.2a.817.817,0,0,1-.769-.457l-2.259-4.078c0-.007,0-.01-.01-.01s-.009,0-.009.01V-40.7a.5.5,0,0,1-.155.366.5.5,0,0,1-.366.156Z" transform="translate(-257.532 107.496)"/><path d="M458.9-40.217a3.006,3.006,0,0,1-2.291-.892,3.544,3.544,0,0,1-.846-2.538,3.625,3.625,0,0,1,.818-2.529,2.942,2.942,0,0,1,2.291-.9,6.456,6.456,0,0,1,1.134.084.577.577,0,0,1,.366.219.645.645,0,0,1,.146.411v.073a.349.349,0,0,1-.16.3.408.408,0,0,1-.343.063,3.956,3.956,0,0,0-1.007-.118,1.751,1.751,0,0,0-1.423.622,2.705,2.705,0,0,0-.516,1.773,2.648,2.648,0,0,0,.535,1.771,1.786,1.786,0,0,0,1.431.625,4.185,4.185,0,0,0,1.034-.11.411.411,0,0,1,.343.065.349.349,0,0,1,.16.3v.065a.632.632,0,0,1-.142.406.568.568,0,0,1-.37.215,6.725,6.725,0,0,1-1.161.092" transform="translate(-266.536 107.626)"/><path d="M472.312-42.894l-1.93-3.5a.285.285,0,0,1,.009-.3.29.29,0,0,1,.264-.155h.44a.808.808,0,0,1,.438.127.82.82,0,0,1,.3.339l1.189,2.516c0,.006,0,.009.008.009s.01,0,.01-.009l1.189-2.516a.815.815,0,0,1,.3-.339.808.808,0,0,1,.438-.127h.4a.29.29,0,0,1,.265.155.285.285,0,0,1,.01.3l-1.93,3.5a.274.274,0,0,0-.045.146V-40.7a.507.507,0,0,1-.152.366.485.485,0,0,1-.361.155h-.293a.486.486,0,0,1-.361-.155.512.512,0,0,1-.151-.366v-2.049a.269.269,0,0,0-.046-.146" transform="translate(-275.06 107.496)"/></g></g></svg>