<svg xmlns="http://www.w3.org/2000/svg" xmlns:xlink="http://www.w3.org/1999/xlink" width="113.949" height="45.491" viewBox="0 0 113.949 45.491">
  <defs>
    <clipPath id="clip-path">
      <path id="Path_512" data-name="Path 512" d="M0-147.419H113.949V-192.91H0Z" transform="translate(0 192.91)" fill="rgba(0,0,0,0)"/>
    </clipPath>
  </defs>
  <g id="Group_446" data-name="Group 446" transform="translate(0 192.91)">
    <g id="Group_264" data-name="Group 264" transform="translate(0 -192.91)" clip-path="url(#clip-path)">
      <g id="Group_258" data-name="Group 258" transform="translate(0.39 1.181)">
        <path id="Path_464" data-name="Path 464" d="M-42.5-16a.887.887,0,0,1-1.3.364,8.433,8.433,0,0,0-4.533-1.457,2.881,2.881,0,0,0-2.954,2.914v.729a.4.4,0,0,0,.445.445h5.667a.81.81,0,0,1,.89.89v1.862a.81.81,0,0,1-.89.89h-5.667a.4.4,0,0,0-.445.445v6.192a.81.81,0,0,1-.891.891h-2.55a.81.81,0,0,1-.89-.891V-14.18c0-3.6,2.914-6.759,7.285-6.759a11.091,11.091,0,0,1,6.516,2.105.951.951,0,0,1,.243,1.295Z" transform="translate(55.608 20.939)" fill="rgba(0,0,0,0)" stroke="#fff" stroke-width="1"/>
      </g>
      <g id="Group_259" data-name="Group 259" transform="translate(45.113 1.181)">
        <path id="Path_465" data-name="Path 465" d="M-23.608-63.217c-4.371,0-7.285-3.156-7.285-6.759v-5.99c0-3.6,2.914-6.759,7.285-6.759a6.858,6.858,0,0,1,6.637,4.047.973.973,0,0,1-.243,1.214l-1.9,1.255a.817.817,0,0,1-1.214-.2c-.769-1.3-1.5-2.469-3.278-2.469a2.881,2.881,0,0,0-2.954,2.914v5.99a2.881,2.881,0,0,0,2.954,2.915c1.781,0,2.509-1.174,3.278-2.469a.817.817,0,0,1,1.214-.2l1.9,1.254a.974.974,0,0,1,.243,1.215A6.859,6.859,0,0,1-23.608-63.217Z" transform="translate(30.893 82.724)" fill="rgba(0,0,0,0)" stroke="#fff" stroke-width="1"/>
      </g>
      <g id="Group_260" data-name="Group 260" transform="translate(67.454 1.586)">
        <path id="Path_466" data-name="Path 466" d="M-44.33-11.8h-3.8a.405.405,0,0,0-.446.446V2.361a.81.81,0,0,1-.89.891H-51.98a.81.81,0,0,1-.891-.891V-11.358a.4.4,0,0,0-.445-.446h-3.8a.81.81,0,0,1-.89-.891v-1.862a.81.81,0,0,1,.89-.89H-44.33a.81.81,0,0,1,.89.89v1.862A.81.81,0,0,1-44.33-11.8Z" transform="translate(58.01 15.446)" fill="rgba(0,0,0,0)" stroke="#fff" stroke-width="1"/>
      </g>
      <path id="Path_467" data-name="Path 467" d="M97.85-171.533s-.138-2.389,2.734-1.25a13.158,13.158,0,0,0,3.4.131l.582-.444s-.011-9.121-.056-9.494a17.787,17.787,0,0,0-.881-4.176c-1-2.187-3.75-5.312-5.937-6.093l-.547-.051h-.958l-.547.051c-2.187.781-4.935,3.906-5.937,6.093a17.788,17.788,0,0,0-.881,4.176c-.046.373-.056,9.494-.056,9.494l.582.444a13.155,13.155,0,0,0,3.4-.131c2.873-1.14,2.734,1.25,2.734,1.25" transform="translate(-67.836 192.909)" fill="#fff"/>
      <path id="Path_468" data-name="Path 468" d="M108.77-87.695l.246-.029.006.029a7.865,7.865,0,0,1,2.138,1.731,5.248,5.248,0,0,1,1.2,2.745c0,.712-.015,1.131-.015,1.131s-3.148-.179-3.564-.179l-.009,0-.009,0c-.416,0-3.324.179-3.324.179s-.015-.419-.015-1.131a5.251,5.251,0,0,1,1.2-2.745,7.872,7.872,0,0,1,2.138-1.731M108-104.3l-.475,6.474.064,2.771-.183.315s-.059,4.557-.178,5.567-2.158,3.048-2.435,5.182a18.727,18.727,0,0,0,.3,4.216l3.591.067a.031.031,0,0,0,0,0l.1,0,.1,0a.029.029,0,0,0,0,0l3.831-.067a18.728,18.728,0,0,0,.3-4.216c-.276-2.134-2.316-4.173-2.435-5.182s-.178-5.567-.178-5.567l-.175-.315.056-2.771-.475-6.474" transform="translate(-80.045 125.193)" fill="#fff"/>
      <g id="Group_261" data-name="Group 261" transform="translate(27.718 30.251)">
        <path id="Path_469" data-name="Path 469" d="M-7.282,0H-9.53" transform="translate(9.53)" fill="rgba(0,0,0,0)" stroke="#d8d8da" stroke-width="1.123"/>
      </g>
      <g id="Group_262" data-name="Group 262" transform="translate(27.149 12.806)">
        <path id="Path_470" data-name="Path 470" d="M0,0V6.212" fill="rgba(0,0,0,0)" stroke="#d8d8da" stroke-linecap="round" stroke-width="2.138"/>
      </g>
      <g id="Group_263" data-name="Group 263" transform="translate(30.743 12.806)">
        <path id="Path_471" data-name="Path 471" d="M0-20.13v-6.212" transform="translate(0 26.341)" fill="rgba(0,0,0,0)" stroke="#d8d8da" stroke-linecap="round" stroke-width="2.138"/>
      </g>
      <path id="Path_472" data-name="Path 472" d="M159.374-73.9a.275.275,0,0,1-.2-.088.289.289,0,0,1-.086-.208v-3.2a.289.289,0,0,1,.086-.207.276.276,0,0,1,.2-.088h1.714a.285.285,0,0,1,.208.088.286.286,0,0,1,.089.207.278.278,0,0,1-.089.206.288.288,0,0,1-.208.085h-1.236c-.027,0-.042.016-.042.047v.909a.037.037,0,0,0,.042.041H161a.277.277,0,0,1,.2.081.269.269,0,0,1,.083.2.267.267,0,0,1-.083.2.275.275,0,0,1-.2.081h-1.148a.037.037,0,0,0-.042.042V-74.2a.284.284,0,0,1-.088.208.283.283,0,0,1-.207.088Z" transform="translate(-121.569 104.861)" fill="#fff"/>
      <path id="Path_473" data-name="Path 473" d="M174.309-75.966q0-1.35-.987-1.35t-.987,1.35q0,1.35.987,1.351t.987-1.351m.278,1.434a1.621,1.621,0,0,1-1.265.514,1.621,1.621,0,0,1-1.265-.514,2.063,2.063,0,0,1-.465-1.434,2.063,2.063,0,0,1,.465-1.434,1.62,1.62,0,0,1,1.265-.514,1.62,1.62,0,0,1,1.265.514,2.064,2.064,0,0,1,.465,1.434,2.063,2.063,0,0,1-.465,1.434" transform="translate(-131.129 105.031)" fill="#fff"/>
      <path id="Path_474" data-name="Path 474" d="M191.512-75.966q0-1.35-.987-1.35t-.987,1.35q0,1.35.987,1.351t.987-1.351m.278,1.434a1.621,1.621,0,0,1-1.265.514,1.621,1.621,0,0,1-1.265-.514,2.063,2.063,0,0,1-.465-1.434,2.064,2.064,0,0,1,.465-1.434,1.62,1.62,0,0,1,1.265-.514,1.62,1.62,0,0,1,1.265.514,2.062,2.062,0,0,1,.465,1.434,2.061,2.061,0,0,1-.465,1.434" transform="translate(-144.275 105.031)" fill="#fff"/>
      <path id="Path_475" data-name="Path 475" d="M207.491-77.258v2.586a.046.046,0,0,0,.041.047,1.984,1.984,0,0,0,.312.027,1.119,1.119,0,0,0,.893-.33,1.652,1.652,0,0,0,.286-1.088,1.441,1.441,0,0,0-.291-1,1.148,1.148,0,0,0-.888-.317,2.024,2.024,0,0,0-.312.026.047.047,0,0,0-.041.047m-.426,3.205a.327.327,0,0,1-.213-.112.335.335,0,0,1-.083-.226v-3.148a.333.333,0,0,1,.083-.226.322.322,0,0,1,.213-.112,6.867,6.867,0,0,1,.743-.036,1.935,1.935,0,0,1,1.415.483,1.9,1.9,0,0,1,.491,1.413,2.062,2.062,0,0,1-.491,1.5,1.894,1.894,0,0,1-1.415.5,7.08,7.08,0,0,1-.743-.036" transform="translate(-158.01 105.031)" fill="#fff"/>
      <path id="Path_476" data-name="Path 476" d="M231.175-77.048l-.457,1.631a.034.034,0,0,0,.005.031.031.031,0,0,0,.026.016h.862a.03.03,0,0,0,.026-.016.034.034,0,0,0,.005-.031l-.457-1.631a0,0,0,0,0,0-.005,0,0,0,0,0-.005.005M229.83-73.9a.2.2,0,0,1-.171-.088.2.2,0,0,1-.026-.192l1.075-3.231a.436.436,0,0,1,.153-.2.389.389,0,0,1,.236-.078h.187a.4.4,0,0,1,.242.078.4.4,0,0,1,.148.2l1.075,3.231a.2.2,0,0,1-.026.192.2.2,0,0,1-.171.088h-.187a.375.375,0,0,1-.231-.081.381.381,0,0,1-.142-.2l-.166-.586c0-.028-.023-.042-.057-.042h-1.174a.052.052,0,0,0-.057.042l-.166.586a.358.358,0,0,1-.138.2A.381.381,0,0,1,230-73.9Z" transform="translate(-175.472 104.862)" fill="#fff"/>
      <path id="Path_477" data-name="Path 477" d="M246.413-74.018a1.819,1.819,0,0,1-1.353-.522,1.936,1.936,0,0,1-.517-1.426,1.941,1.941,0,0,1,.514-1.431,1.919,1.919,0,0,1,1.423-.517,4.072,4.072,0,0,1,.68.053.33.33,0,0,1,.208.122.355.355,0,0,1,.083.231v.021a.211.211,0,0,1-.088.176.224.224,0,0,1-.2.042,2.837,2.837,0,0,0-.608-.068,1.246,1.246,0,0,0-.954.346,1.448,1.448,0,0,0-.325,1.026,1.466,1.466,0,0,0,.32,1.015,1.1,1.1,0,0,0,.865.356,1.6,1.6,0,0,0,.441-.063.053.053,0,0,0,.042-.058v-1.028c0-.031-.014-.047-.042-.047h-.649a.263.263,0,0,1-.195-.081.266.266,0,0,1-.081-.195.271.271,0,0,1,.081-.2.265.265,0,0,1,.195-.08h1.091a.285.285,0,0,1,.208.088.285.285,0,0,1,.088.208v1.511a.412.412,0,0,1-.078.245.368.368,0,0,1-.2.145,3.345,3.345,0,0,1-.95.13" transform="translate(-186.877 105.031)" fill="#fff"/>
      <path id="Path_478" data-name="Path 478" d="M263.126-77.269v1.127c0,.028.016.042.047.042h.259q.925,0,.925-.659,0-.587-.857-.587a2.181,2.181,0,0,0-.327.026.051.051,0,0,0-.047.052m-.421,3.2a.284.284,0,0,1-.208-.088.286.286,0,0,1-.088-.208v-3.173a.337.337,0,0,1,.083-.224.3.3,0,0,1,.208-.11c.294-.027.578-.041.852-.041a1.9,1.9,0,0,1,1.142.283.938.938,0,0,1,.379.8,1.088,1.088,0,0,1-.2.649,1.057,1.057,0,0,1-.537.395s-.005,0-.005.005,0,.01.005.01a1.21,1.21,0,0,1,.426.613l.312.815a.2.2,0,0,1-.023.188.188.188,0,0,1-.163.088h-.161a.419.419,0,0,1-.244-.075.412.412,0,0,1-.156-.2l-.291-.8a.66.66,0,0,0-.213-.327.8.8,0,0,0-.41-.078h-.239a.041.041,0,0,0-.047.047v1.137a.29.29,0,0,1-.086.208.276.276,0,0,1-.205.088Z" transform="translate(-200.53 105.031)" fill="#fff"/>
      <path id="Path_479" data-name="Path 479" d="M278.78-75.966q0-1.35-.987-1.35t-.987,1.35q0,1.35.987,1.351t.987-1.351m.278,1.434a1.622,1.622,0,0,1-1.265.514,1.62,1.62,0,0,1-1.265-.514,2.061,2.061,0,0,1-.465-1.434,2.062,2.062,0,0,1,.465-1.434,1.619,1.619,0,0,1,1.265-.514,1.621,1.621,0,0,1,1.265.514,2.064,2.064,0,0,1,.465,1.434,2.063,2.063,0,0,1-.465,1.434" transform="translate(-210.964 105.031)" fill="#fff"/>
      <path id="Path_480" data-name="Path 480" d="M294.842-75.753v1.091a.051.051,0,0,0,.046.052,2.426,2.426,0,0,0,.343.026,1.015,1.015,0,0,0,.631-.158.582.582,0,0,0,.2-.486.463.463,0,0,0-.231-.428,1.58,1.58,0,0,0-.766-.138h-.182a.037.037,0,0,0-.041.042m0-1.517v.888c0,.031.014.046.041.046h.151a1.387,1.387,0,0,0,.7-.132.43.43,0,0,0,.215-.392.413.413,0,0,0-.176-.369,1.061,1.061,0,0,0-.576-.119,1.955,1.955,0,0,0-.312.021.052.052,0,0,0-.041.057m-.426,3.21a.3.3,0,0,1-.208-.106.336.336,0,0,1-.083-.226V-77.54a.336.336,0,0,1,.083-.226.3.3,0,0,1,.213-.107,6.99,6.99,0,0,1,.743-.042q1.455,0,1.454.95a.793.793,0,0,1-.213.551.993.993,0,0,1-.561.3s-.005,0-.005.005,0,.01.005.01a1.117,1.117,0,0,1,.667.315.863.863,0,0,1,.242.621,1.01,1.01,0,0,1-.374.857,1.915,1.915,0,0,1-1.163.285,7.823,7.823,0,0,1-.8-.041" transform="translate(-224.767 105.032)" fill="#fff"/>
      <path id="Path_481" data-name="Path 481" d="M309.84-73.9a.283.283,0,0,1-.208-.088.284.284,0,0,1-.088-.208v-3.2a.284.284,0,0,1,.088-.207.285.285,0,0,1,.208-.088h.208a.284.284,0,0,1,.208.088.284.284,0,0,1,.088.207v3.2a.284.284,0,0,1-.088.208.283.283,0,0,1-.208.088Z" transform="translate(-236.549 104.861)" fill="#fff"/>
      <path id="Path_482" data-name="Path 482" d="M319.484-75.966q0-1.35-.987-1.35t-.986,1.35q0,1.35.986,1.351t.987-1.351m.278,1.434a1.621,1.621,0,0,1-1.265.514,1.621,1.621,0,0,1-1.265-.514,2.061,2.061,0,0,1-.465-1.434,2.062,2.062,0,0,1,.465-1.434,1.62,1.62,0,0,1,1.265-.514,1.62,1.62,0,0,1,1.265.514,2.064,2.064,0,0,1,.465,1.434,2.063,2.063,0,0,1-.465,1.434" transform="translate(-242.07 105.031)" fill="#fff"/>
      <path id="Path_483" data-name="Path 483" d="M335.552-77.258v2.586a.046.046,0,0,0,.041.047,1.984,1.984,0,0,0,.312.027,1.118,1.118,0,0,0,.893-.33,1.652,1.652,0,0,0,.286-1.088,1.443,1.443,0,0,0-.291-1,1.149,1.149,0,0,0-.888-.317,2.024,2.024,0,0,0-.312.026.047.047,0,0,0-.041.047m-.426,3.205a.326.326,0,0,1-.212-.112.333.333,0,0,1-.083-.226v-3.148a.332.332,0,0,1,.083-.226.321.321,0,0,1,.212-.112,6.867,6.867,0,0,1,.743-.036,1.935,1.935,0,0,1,1.415.483,1.9,1.9,0,0,1,.491,1.413,2.061,2.061,0,0,1-.491,1.5,1.893,1.893,0,0,1-1.415.5,7.081,7.081,0,0,1-.743-.036" transform="translate(-255.873 105.031)" fill="#fff"/>
      <path id="Path_484" data-name="Path 484" d="M351.448-73.9a.283.283,0,0,1-.208-.088.284.284,0,0,1-.088-.208v-3.2a.284.284,0,0,1,.088-.207.285.285,0,0,1,.208-.088h.208a.285.285,0,0,1,.208.088.284.284,0,0,1,.088.207v3.2a.284.284,0,0,1-.088.208.283.283,0,0,1-.208.088Z" transform="translate(-268.345 104.861)" fill="#fff"/>
      <path id="Path_485" data-name="Path 485" d="M359.827-74.181l-1.075-3.231a.2.2,0,0,1,.025-.192.2.2,0,0,1,.172-.088h.187a.394.394,0,0,1,.239.081.352.352,0,0,1,.14.205l.795,2.789a0,0,0,0,0,.005.005s.005,0,.005-.005l.8-2.794a.376.376,0,0,1,.143-.2.392.392,0,0,1,.237-.078h.166a.2.2,0,0,1,.171.088.2.2,0,0,1,.026.192l-1.075,3.231a.4.4,0,0,1-.148.2.4.4,0,0,1-.242.078h-.187a.391.391,0,0,1-.237-.078.432.432,0,0,1-.153-.2" transform="translate(-274.143 104.862)" fill="#fff"/>
      <path id="Path_486" data-name="Path 486" d="M375.83-73.9a.283.283,0,0,1-.208-.088.286.286,0,0,1-.088-.208v-3.2a.285.285,0,0,1,.088-.207.285.285,0,0,1,.208-.088H377.6a.285.285,0,0,1,.208.088.284.284,0,0,1,.088.207.276.276,0,0,1-.088.206.289.289,0,0,1-.208.085h-1.288a.041.041,0,0,0-.047.047v.837a.041.041,0,0,0,.047.047h1.2a.269.269,0,0,1,.2.083.275.275,0,0,1,.08.2.266.266,0,0,1-.08.195.27.27,0,0,1-.2.081h-1.2a.041.041,0,0,0-.047.047v1.038a.041.041,0,0,0,.047.047H377.6a.29.29,0,0,1,.208.086.274.274,0,0,1,.088.2.284.284,0,0,1-.088.208.284.284,0,0,1-.208.088Z" transform="translate(-286.978 104.861)" fill="#fff"/>
      <path id="Path_487" data-name="Path 487" d="M390.855-77.269v1.127c0,.028.016.042.047.042h.26q.925,0,.925-.659,0-.587-.857-.587a2.185,2.185,0,0,0-.328.026.051.051,0,0,0-.047.052m-.421,3.2a.285.285,0,0,1-.208-.088.286.286,0,0,1-.088-.208v-3.173a.339.339,0,0,1,.083-.224.3.3,0,0,1,.208-.11c.294-.027.579-.041.852-.041a1.9,1.9,0,0,1,1.142.283.937.937,0,0,1,.379.8,1.09,1.09,0,0,1-.2.649,1.06,1.06,0,0,1-.537.395s-.005,0-.005.005,0,.01.005.01a1.212,1.212,0,0,1,.425.613l.312.815a.2.2,0,0,1-.024.188.187.187,0,0,1-.163.088h-.161a.419.419,0,0,1-.244-.075.416.416,0,0,1-.156-.2l-.291-.8a.661.661,0,0,0-.213-.327.792.792,0,0,0-.41-.078H390.9a.041.041,0,0,0-.047.047v1.137a.288.288,0,0,1-.086.208.276.276,0,0,1-.205.088Z" transform="translate(-298.139 105.031)" fill="#fff"/>
      <path id="Path_488" data-name="Path 488" d="M405.854-75.669a2.162,2.162,0,0,1-.9-.5,1.008,1.008,0,0,1-.278-.717.941.941,0,0,1,.317-.748,1.312,1.312,0,0,1,.888-.275,2.909,2.909,0,0,1,.842.109.359.359,0,0,1,.2.148.435.435,0,0,1,.075.247v.047a.171.171,0,0,1-.088.154.2.2,0,0,1-.181.018,2.19,2.19,0,0,0-.795-.151.575.575,0,0,0-.395.12.419.419,0,0,0-.135.332q0,.374.488.535a2.361,2.361,0,0,1,.974.509,1.023,1.023,0,0,1,.273.737q0,1.092-1.345,1.091a2.135,2.135,0,0,1-.764-.13.378.378,0,0,1-.195-.161.476.476,0,0,1-.07-.254v-.063a.149.149,0,0,1,.083-.142.181.181,0,0,1,.171,0,1.6,1.6,0,0,0,.722.171q.66,0,.66-.5a.47.47,0,0,0-.125-.335,1.071,1.071,0,0,0-.421-.236" transform="translate(-309.247 105.031)" fill="#fff"/>
      <path id="Path_489" data-name="Path 489" d="M420.125-73.9a.283.283,0,0,1-.208-.088.286.286,0,0,1-.088-.208v-3.2a.285.285,0,0,1,.088-.207.284.284,0,0,1,.208-.088h.208a.284.284,0,0,1,.208.088.284.284,0,0,1,.088.207v3.2a.284.284,0,0,1-.088.208.283.283,0,0,1-.208.088Z" transform="translate(-320.828 104.861)" fill="#fff"/>
      <path id="Path_490" data-name="Path 490" d="M428.011-77.09a.29.29,0,0,1-.208-.086.277.277,0,0,1-.088-.205V-77.4a.285.285,0,0,1,.088-.207.285.285,0,0,1,.208-.088h2.213a.287.287,0,0,1,.208.088.284.284,0,0,1,.088.207v.016a.277.277,0,0,1-.088.205.292.292,0,0,1-.208.086h-.7c-.028,0-.042.015-.042.047V-74.2a.285.285,0,0,1-.088.208.285.285,0,0,1-.208.088h-.146a.283.283,0,0,1-.208-.088.283.283,0,0,1-.089-.208v-2.846c0-.032-.013-.047-.041-.047Z" transform="translate(-326.854 104.862)" fill="#fff"/>
      <path id="Path_491" data-name="Path 491" d="M443.959-75.442l-1.1-1.989a.162.162,0,0,1,.005-.172.165.165,0,0,1,.15-.088h.25a.456.456,0,0,1,.249.072.464.464,0,0,1,.172.192L444.365-76a0,0,0,0,0,0,0s.005,0,.005,0l.675-1.429a.461.461,0,0,1,.172-.192.456.456,0,0,1,.249-.072h.229a.165.165,0,0,1,.151.088.162.162,0,0,1,.005.172l-1.1,1.989a.158.158,0,0,0-.025.083V-74.2a.289.289,0,0,1-.086.208.276.276,0,0,1-.2.088h-.166a.276.276,0,0,1-.205-.088.291.291,0,0,1-.086-.208v-1.163a.155.155,0,0,0-.026-.083" transform="translate(-338.413 104.861)" fill="#fff"/>
      <path id="Path_492" data-name="Path 492" d="M174.145-43.181a1.706,1.706,0,0,1-1.3-.507,2.013,2.013,0,0,1-.481-1.442,2.059,2.059,0,0,1,.465-1.436,1.671,1.671,0,0,1,1.3-.512,3.667,3.667,0,0,1,.644.047.328.328,0,0,1,.208.124.366.366,0,0,1,.083.234v.042a.2.2,0,0,1-.091.172.232.232,0,0,1-.195.036,2.247,2.247,0,0,0-.571-.067.994.994,0,0,0-.808.353,1.535,1.535,0,0,0-.293,1.007,1.5,1.5,0,0,0,.3,1.006,1.015,1.015,0,0,0,.813.355,2.376,2.376,0,0,0,.587-.063.233.233,0,0,1,.195.037.2.2,0,0,1,.091.171v.037a.359.359,0,0,1-.081.231.322.322,0,0,1-.21.122,3.819,3.819,0,0,1-.659.052" transform="translate(-131.718 81.466)" fill="#fff"/>
      <path id="Path_493" data-name="Path 493" d="M188.145-43.063a.275.275,0,0,1-.205-.088.288.288,0,0,1-.086-.208v-3.2a.289.289,0,0,1,.086-.207.276.276,0,0,1,.205-.088h.166a.285.285,0,0,1,.208.088.284.284,0,0,1,.088.207v2.847c0,.031.014.047.042.047h1.335a.28.28,0,0,1,.2.086.281.281,0,0,1,.086.205v.015a.288.288,0,0,1-.086.208.275.275,0,0,1-.2.088Z" transform="translate(-143.556 81.296)" fill="#fff"/>
      <path id="Path_494" data-name="Path 494" d="M201.43-46.21l-.457,1.631a.034.034,0,0,0,.005.031.03.03,0,0,0,.026.016h.862a.03.03,0,0,0,.026-.016.035.035,0,0,0,.005-.031l-.457-1.631s0-.006-.005-.006-.005,0-.005.006m-1.345,3.147a.2.2,0,0,1-.172-.088.2.2,0,0,1-.026-.192l1.076-3.231a.433.433,0,0,1,.153-.2.392.392,0,0,1,.236-.078h.187a.4.4,0,0,1,.242.078.406.406,0,0,1,.148.2L203-43.343a.2.2,0,0,1-.026.192.2.2,0,0,1-.171.088h-.187a.373.373,0,0,1-.231-.081.382.382,0,0,1-.143-.2l-.166-.587c0-.028-.022-.042-.057-.042h-1.174a.053.053,0,0,0-.058.042l-.166.587a.358.358,0,0,1-.138.2.381.381,0,0,1-.236.081Z" transform="translate(-152.741 81.296)" fill="#fff"/>
      <path id="Path_495" data-name="Path 495" d="M217.366-46.433v1.127c0,.028.016.041.047.041h.259q.925,0,.925-.659,0-.587-.857-.587a2.181,2.181,0,0,0-.327.026.051.051,0,0,0-.047.052m-.421,3.2a.284.284,0,0,1-.208-.088.285.285,0,0,1-.088-.208V-46.7a.337.337,0,0,1,.083-.224.3.3,0,0,1,.208-.109q.441-.041.852-.042a1.9,1.9,0,0,1,1.142.283.938.938,0,0,1,.379.8,1.089,1.089,0,0,1-.2.649,1.064,1.064,0,0,1-.538.4s-.005,0-.005.005,0,.01.005.01a1.213,1.213,0,0,1,.426.613l.312.815a.2.2,0,0,1-.023.187.187.187,0,0,1-.164.088h-.161a.421.421,0,0,1-.244-.075.416.416,0,0,1-.156-.2l-.291-.8a.662.662,0,0,0-.213-.327.8.8,0,0,0-.41-.078h-.239a.041.041,0,0,0-.047.047v1.137a.289.289,0,0,1-.086.208.276.276,0,0,1-.2.088Z" transform="translate(-165.561 81.466)" fill="#fff"/>
      <path id="Path_496" data-name="Path 496" d="M232.671-43.063a.283.283,0,0,1-.208-.088.283.283,0,0,1-.088-.208v-3.2a.284.284,0,0,1,.088-.207.284.284,0,0,1,.208-.088h.208a.284.284,0,0,1,.208.088.284.284,0,0,1,.088.207v3.2a.283.283,0,0,1-.088.208.283.283,0,0,1-.208.088Z" transform="translate(-177.578 81.296)" fill="#fff"/>
      <path id="Path_497" data-name="Path 497" d="M240.535-46.253a.288.288,0,0,1-.208-.086.277.277,0,0,1-.088-.205v-.016a.285.285,0,0,1,.088-.207.284.284,0,0,1,.208-.088h2.213a.285.285,0,0,1,.208.088.285.285,0,0,1,.088.207v.016a.277.277,0,0,1-.088.205.288.288,0,0,1-.208.086h-.7c-.028,0-.042.015-.042.047v2.846a.283.283,0,0,1-.088.208.283.283,0,0,1-.208.088h-.145a.283.283,0,0,1-.208-.088.282.282,0,0,1-.089-.208v-2.846c0-.031-.013-.047-.041-.047Z" transform="translate(-183.587 81.297)" fill="#fff"/>
      <path id="Path_498" data-name="Path 498" d="M256.461-44.605l-1.1-1.989a.162.162,0,0,1,.005-.172.166.166,0,0,1,.151-.088h.249a.459.459,0,0,1,.249.072.465.465,0,0,1,.171.192l.675,1.429a0,0,0,0,0,.005.005s.005,0,.005-.005l.675-1.429a.462.462,0,0,1,.171-.192.46.46,0,0,1,.249-.072h.229a.165.165,0,0,1,.151.088.163.163,0,0,1,.005.172l-1.1,1.989a.156.156,0,0,0-.026.083v1.164a.289.289,0,0,1-.086.208.275.275,0,0,1-.2.088h-.166a.276.276,0,0,1-.205-.088.29.29,0,0,1-.086-.208v-1.164a.153.153,0,0,0-.026-.083" transform="translate(-195.13 81.296)" fill="#fff"/>
      <path id="Path_499" data-name="Path 499" d="M280-46.551a.57.57,0,0,0-.356.1.313.313,0,0,0-.127.26.506.506,0,0,0,.063.252,2.132,2.132,0,0,0,.3.356c.021.028.043.031.068.01a2.2,2.2,0,0,0,.426-.335.4.4,0,0,0,.1-.267q0-.375-.478-.374m-.239,1.756c-.319.222-.478.425-.478.613q0,.446.623.447a1.573,1.573,0,0,0,.747-.187c.025-.014.027-.031.006-.052l-.831-.816a.055.055,0,0,0-.068-.005m.109,1.615q-1.324,0-1.325-.95a.876.876,0,0,1,.182-.517,2.49,2.49,0,0,1,.618-.548c.024-.021.026-.042.005-.062a2.284,2.284,0,0,1-.415-.5.911.911,0,0,1-.12-.449.755.755,0,0,1,.312-.629,1.391,1.391,0,0,1,.862-.239,1.42,1.42,0,0,1,.872.227.747.747,0,0,1,.3.63.855.855,0,0,1-.182.52,2.435,2.435,0,0,1-.618.53c-.01,0-.015.012-.015.026a.041.041,0,0,0,.01.031l.592.592c0,.007.01.008.019,0a.023.023,0,0,0,.013-.019v-.488a.275.275,0,0,1,.088-.2.287.287,0,0,1,.208-.086h.078a.287.287,0,0,1,.208.086.276.276,0,0,1,.088.2v1.159a.105.105,0,0,0,.031.078l.348.348a.112.112,0,0,1,.026.132.114.114,0,0,1-.114.075h-.224a.708.708,0,0,1-.5-.208l-.021-.021a.064.064,0,0,0-.078-.01,2.994,2.994,0,0,1-1.242.29" transform="translate(-212.858 81.466)" fill="#fff"/>
      <path id="Path_500" data-name="Path 500" d="M303.816-46.253a.288.288,0,0,1-.208-.086.277.277,0,0,1-.088-.205v-.016a.285.285,0,0,1,.088-.207.285.285,0,0,1,.208-.088h2.213a.286.286,0,0,1,.208.088.285.285,0,0,1,.088.207v.016a.277.277,0,0,1-.088.205.29.29,0,0,1-.208.086h-.7c-.028,0-.042.015-.042.047v2.846a.284.284,0,0,1-.088.208.284.284,0,0,1-.208.088h-.146a.283.283,0,0,1-.208-.088.284.284,0,0,1-.089-.208v-2.846c0-.031-.013-.047-.041-.047Z" transform="translate(-231.946 81.297)" fill="#fff"/>
      <path id="Path_501" data-name="Path 501" d="M320.163-46.433v1.127c0,.028.016.041.047.041h.26q.925,0,.925-.659,0-.587-.857-.587a2.182,2.182,0,0,0-.328.026.051.051,0,0,0-.047.052m-.421,3.2a.284.284,0,0,1-.208-.088.285.285,0,0,1-.088-.208V-46.7a.337.337,0,0,1,.083-.224.3.3,0,0,1,.208-.109c.294-.027.579-.042.852-.042a1.9,1.9,0,0,1,1.142.283.938.938,0,0,1,.379.8,1.09,1.09,0,0,1-.2.649,1.063,1.063,0,0,1-.537.4s-.005,0-.005.005,0,.01.005.01a1.213,1.213,0,0,1,.425.613l.312.815a.2.2,0,0,1-.024.187.187.187,0,0,1-.163.088h-.161a.419.419,0,0,1-.244-.075.417.417,0,0,1-.156-.2l-.291-.8a.662.662,0,0,0-.213-.327.794.794,0,0,0-.41-.078h-.239a.041.041,0,0,0-.047.047v1.137a.288.288,0,0,1-.086.208.276.276,0,0,1-.205.088Z" transform="translate(-244.117 81.466)" fill="#fff"/>
      <path id="Path_502" data-name="Path 502" d="M335-46.21l-.457,1.631a.034.034,0,0,0,.005.031.03.03,0,0,0,.025.016h.863a.029.029,0,0,0,.025-.016.034.034,0,0,0,.005-.031l-.457-1.631s0-.006,0-.006-.005,0-.005.006m-1.345,3.147a.2.2,0,0,1-.172-.088.2.2,0,0,1-.026-.192l1.075-3.231a.436.436,0,0,1,.153-.2.392.392,0,0,1,.236-.078h.187a.4.4,0,0,1,.242.078.4.4,0,0,1,.148.2l1.076,3.231a.2.2,0,0,1-.026.192.2.2,0,0,1-.171.088h-.187a.374.374,0,0,1-.231-.081.386.386,0,0,1-.143-.2l-.166-.587c0-.028-.023-.042-.057-.042h-1.174a.052.052,0,0,0-.057.042l-.166.587a.36.36,0,0,1-.138.2.381.381,0,0,1-.237.081Z" transform="translate(-254.811 81.296)" fill="#fff"/>
      <path id="Path_503" data-name="Path 503" d="M350.506-43.063a.274.274,0,0,1-.2-.088.287.287,0,0,1-.086-.208v-3.2a.288.288,0,0,1,.086-.207.275.275,0,0,1,.2-.088h.114a.463.463,0,0,1,.437.26l1.283,2.317s0,0,.005,0a0,0,0,0,0,0,0v-2.281a.286.286,0,0,1,.089-.207.284.284,0,0,1,.208-.088h.114a.275.275,0,0,1,.2.088.288.288,0,0,1,.086.207v3.2a.287.287,0,0,1-.086.208.274.274,0,0,1-.2.088h-.114a.464.464,0,0,1-.437-.26l-1.282-2.316a0,0,0,0,0-.005-.005s-.005,0-.005.005v2.28a.284.284,0,0,1-.088.208.284.284,0,0,1-.208.088Z" transform="translate(-267.63 81.296)" fill="#fff"/>
      <path id="Path_504" data-name="Path 504" d="M367.672-44.832a2.171,2.171,0,0,1-.9-.5,1.009,1.009,0,0,1-.278-.717.941.941,0,0,1,.317-.749,1.311,1.311,0,0,1,.888-.275,2.894,2.894,0,0,1,.842.109.355.355,0,0,1,.2.148.433.433,0,0,1,.075.247v.047a.171.171,0,0,1-.088.153.194.194,0,0,1-.181.018,2.19,2.19,0,0,0-.795-.151.577.577,0,0,0-.395.119.42.42,0,0,0-.135.333q0,.373.488.535a2.356,2.356,0,0,1,.974.509,1.024,1.024,0,0,1,.273.738q0,1.091-1.345,1.091a2.134,2.134,0,0,1-.764-.13.379.379,0,0,1-.195-.161.477.477,0,0,1-.07-.255v-.062a.149.149,0,0,1,.083-.142.181.181,0,0,1,.171,0,1.594,1.594,0,0,0,.722.171q.66,0,.66-.5a.47.47,0,0,0-.125-.335,1.066,1.066,0,0,0-.421-.236" transform="translate(-280.069 81.466)" fill="#fff"/>
      <path id="Path_505" data-name="Path 505" d="M381.9-46.433v1.252a.046.046,0,0,0,.042.047,3.006,3.006,0,0,0,.384.026.982.982,0,0,0,.642-.184.65.65,0,0,0,.22-.528q0-.69-.862-.69a2.937,2.937,0,0,0-.384.026.05.05,0,0,0-.042.052m-.426,3.2a.276.276,0,0,1-.2-.088.289.289,0,0,1-.086-.208V-46.7a.34.34,0,0,1,.083-.224.3.3,0,0,1,.208-.109c.294-.027.579-.042.852-.042a1.859,1.859,0,0,1,1.169.31,1.075,1.075,0,0,1,.39.9,1.241,1.241,0,0,1-.377.982,1.638,1.638,0,0,1-1.114.332c-.115,0-.265-.007-.452-.02a.037.037,0,0,0-.042.041v1.008a.284.284,0,0,1-.088.208.284.284,0,0,1-.208.088Z" transform="translate(-291.297 81.466)" fill="#fff"/>
      <path id="Path_506" data-name="Path 506" d="M395.284-46.21l-.457,1.631a.034.034,0,0,0,.005.031.03.03,0,0,0,.025.016h.863a.029.029,0,0,0,.025-.016.034.034,0,0,0,.005-.031l-.457-1.631s0-.006,0-.006-.005,0-.005.006m-1.345,3.147a.2.2,0,0,1-.172-.088.2.2,0,0,1-.026-.192l1.075-3.231a.436.436,0,0,1,.153-.2.392.392,0,0,1,.236-.078h.187a.4.4,0,0,1,.242.078.4.4,0,0,1,.148.2l1.076,3.231a.2.2,0,0,1-.026.192.2.2,0,0,1-.171.088h-.187a.374.374,0,0,1-.231-.081.386.386,0,0,1-.143-.2l-.166-.587c0-.028-.023-.042-.057-.042H394.7a.052.052,0,0,0-.057.042l-.166.587a.36.36,0,0,1-.138.2.381.381,0,0,1-.237.081Z" transform="translate(-300.882 81.296)" fill="#fff"/>
      <path id="Path_507" data-name="Path 507" d="M411.219-46.433v1.127c0,.028.015.041.046.041h.26q.925,0,.925-.659,0-.587-.857-.587a2.186,2.186,0,0,0-.328.026.051.051,0,0,0-.046.052m-.421,3.2a.284.284,0,0,1-.207-.088.284.284,0,0,1-.088-.208V-46.7a.339.339,0,0,1,.083-.224.3.3,0,0,1,.208-.109q.441-.041.852-.042a1.9,1.9,0,0,1,1.142.283.938.938,0,0,1,.379.8,1.089,1.089,0,0,1-.2.649,1.063,1.063,0,0,1-.537.4s-.005,0-.005.005,0,.01.005.01a1.213,1.213,0,0,1,.425.613l.312.815a.2.2,0,0,1-.024.187.187.187,0,0,1-.163.088h-.161a.419.419,0,0,1-.244-.075.417.417,0,0,1-.156-.2l-.291-.8a.662.662,0,0,0-.213-.327.792.792,0,0,0-.41-.078h-.239a.041.041,0,0,0-.046.047v1.137a.288.288,0,0,1-.086.208.275.275,0,0,1-.205.088Z" transform="translate(-313.7 81.466)" fill="#fff"/>
      <path id="Path_508" data-name="Path 508" d="M426.084-43.063a.283.283,0,0,1-.208-.088.285.285,0,0,1-.088-.208v-3.2a.286.286,0,0,1,.088-.207.285.285,0,0,1,.208-.088h1.766a.286.286,0,0,1,.208.088.284.284,0,0,1,.088.207.276.276,0,0,1-.088.206.29.29,0,0,1-.208.086h-1.288a.041.041,0,0,0-.046.046v.837a.041.041,0,0,0,.046.047h1.2a.268.268,0,0,1,.2.083.273.273,0,0,1,.08.2.266.266,0,0,1-.08.195.272.272,0,0,1-.2.081h-1.2a.041.041,0,0,0-.046.046V-43.7a.041.041,0,0,0,.046.047h1.288a.29.29,0,0,1,.208.086.274.274,0,0,1,.088.205.283.283,0,0,1-.088.208.285.285,0,0,1-.208.088Z" transform="translate(-325.381 81.296)" fill="#fff"/>
      <path id="Path_509" data-name="Path 509" d="M440.661-43.063a.275.275,0,0,1-.205-.088.288.288,0,0,1-.086-.208v-3.2a.289.289,0,0,1,.086-.207.276.276,0,0,1,.205-.088h.114a.463.463,0,0,1,.437.26l1.283,2.317s0,0,.006,0a0,0,0,0,0,0,0v-2.281a.286.286,0,0,1,.088-.207.285.285,0,0,1,.208-.088h.114a.276.276,0,0,1,.205.088.289.289,0,0,1,.086.207v3.2a.288.288,0,0,1-.086.208.275.275,0,0,1-.205.088H442.8a.464.464,0,0,1-.437-.26l-1.283-2.316s0-.005-.005-.005-.005,0-.005.005v2.28a.285.285,0,0,1-.088.208.285.285,0,0,1-.208.088Z" transform="translate(-336.526 81.296)" fill="#fff"/>
      <path id="Path_510" data-name="Path 510" d="M457.549-43.181a1.707,1.707,0,0,1-1.3-.507,2.013,2.013,0,0,1-.481-1.442,2.059,2.059,0,0,1,.465-1.436,1.671,1.671,0,0,1,1.3-.512,3.667,3.667,0,0,1,.644.047.328.328,0,0,1,.208.124.366.366,0,0,1,.083.234v.042a.2.2,0,0,1-.091.172.232.232,0,0,1-.195.036,2.247,2.247,0,0,0-.572-.067.994.994,0,0,0-.808.353,1.536,1.536,0,0,0-.293,1.007,1.5,1.5,0,0,0,.3,1.006,1.015,1.015,0,0,0,.813.355,2.377,2.377,0,0,0,.587-.063.233.233,0,0,1,.195.037.2.2,0,0,1,.091.171v.037a.359.359,0,0,1-.081.231.323.323,0,0,1-.21.122,3.819,3.819,0,0,1-.659.052" transform="translate(-348.291 81.466)" fill="#fff"/>
      <path id="Path_511" data-name="Path 511" d="M471.461-44.605l-1.1-1.989a.162.162,0,0,1,.005-.172.165.165,0,0,1,.15-.088h.25a.459.459,0,0,1,.249.072.466.466,0,0,1,.172.192l.675,1.429s0,.005,0,.005.005,0,.005-.005l.675-1.429a.463.463,0,0,1,.172-.192.459.459,0,0,1,.249-.072h.229a.165.165,0,0,1,.151.088.162.162,0,0,1,.005.172l-1.1,1.989a.156.156,0,0,0-.025.083v1.164a.288.288,0,0,1-.086.208.276.276,0,0,1-.2.088h-.166a.276.276,0,0,1-.205-.088.291.291,0,0,1-.086-.208v-1.164a.153.153,0,0,0-.026-.083" transform="translate(-359.43 81.296)" fill="#fff"/>
    </g>
  </g>
</svg>
